<svg width="50" height="50" viewBox="0 0 50 50" fill="none" xmlns="http://www.w3.org/2000/svg">
<g clip-path="url(#clip0)">
<path d="M49.9036 27.3096C49.4547 22.7941 47.4374 18.5371 44.2231 15.3227C41.4761 12.5759 38.114 10.8107 34.5762 10.0258V7.54452C36.0212 7.18505 37.0952 5.87711 37.0952 4.3225C37.0952 2.49161 35.6057 1.00214 33.7748 1.00214H26.7435C24.9126 1.00214 23.4231 2.49161 23.4231 4.3225C23.4231 5.87702 24.4972 7.18495 25.942 7.54452V10.0327C22.4151 10.8209 19.0641 12.5837 16.325 15.3228C15.7255 15.9222 15.1728 16.551 14.6668 17.2045C14.6423 17.2027 14.6178 17.2008 14.5928 17.2008H7.63362C7.09435 17.2008 6.65704 17.638 6.65704 18.1774C6.65704 18.7168 7.09435 19.154 7.63362 19.154H13.338C12.622 20.3527 12.0446 21.6116 11.6052 22.9076H0.976578C0.437312 22.9076 0 23.3448 0 23.8841C0 24.4235 0.437312 24.8607 0.976578 24.8607H11.0533C10.7718 26.0962 10.6103 27.3535 10.5686 28.6144H6.2501C5.71083 28.6144 5.27352 29.0516 5.27352 29.591C5.27352 30.1303 5.71083 30.5675 6.2501 30.5675H10.5998C10.6822 31.8316 10.8854 33.0891 11.2095 34.3212H4.88289C4.34362 34.3212 3.90631 34.7584 3.90631 35.2978C3.90631 35.8372 4.34362 36.2744 4.88289 36.2744H11.8328C12.7908 38.8087 14.288 41.184 16.325 43.221C19.5424 46.4384 23.8038 48.4562 28.324 48.9028C28.9691 48.9665 29.6147 48.998 30.2595 48.998C34.0703 48.998 37.8326 47.8952 41.0251 45.8162C41.477 45.5219 41.6049 44.9169 41.3105 44.4649C41.0162 44.013 40.4112 43.8851 39.9592 44.1795C32.9711 48.73 23.6123 47.7461 17.706 41.8399C10.776 34.9099 10.776 23.634 17.706 16.7039C24.6359 9.77405 35.9118 9.77405 42.8419 16.7039C48.7403 22.6025 49.7296 31.9533 45.1941 38.938C44.9003 39.3903 45.0289 39.9952 45.4812 40.2889C45.9337 40.5826 46.5384 40.454 46.8321 40.0017C49.2554 36.2697 50.3462 31.7623 49.9036 27.3096ZM25.3763 4.3226C25.3763 3.56868 25.9896 2.95539 26.7435 2.95539H33.7748C34.5288 2.95539 35.1421 3.56868 35.1421 4.3226C35.1421 5.07652 34.5288 5.68981 33.7748 5.68981H33.5996H26.9186H26.7435C25.9896 5.68981 25.3763 5.07642 25.3763 4.3226ZM27.8952 9.697V7.64296H32.6231V9.69348C31.0531 9.50676 29.4648 9.50793 27.8952 9.697Z" fill="#23D997"/>
<path d="M43.5329 41.5533C43.2751 41.5533 43.0241 41.6578 42.8426 41.8395C42.6599 42.0211 42.5563 42.2731 42.5563 42.5299C42.5563 42.7867 42.6599 43.0387 42.8426 43.2203C43.0241 43.403 43.2752 43.5065 43.5329 43.5065C43.7897 43.5065 44.0407 43.403 44.2233 43.2203C44.405 43.0387 44.5095 42.7867 44.5095 42.5299C44.5095 42.2731 44.4051 42.0211 44.2233 41.8395C44.0407 41.6578 43.7896 41.5533 43.5329 41.5533Z" fill="#23D997"/>
<path d="M30.274 14.1222C21.9206 14.1222 15.1245 20.9182 15.1245 29.2717C15.1245 37.6253 21.9206 44.4213 30.274 44.4213C38.6275 44.4213 45.4236 37.6253 45.4236 29.2717C45.4236 20.9182 38.6275 14.1222 30.274 14.1222ZM30.274 42.4681C22.9974 42.4681 17.0776 36.5482 17.0776 29.2717C17.0776 21.9953 22.9974 16.0753 30.274 16.0753C37.5506 16.0753 43.4704 21.9953 43.4704 29.2717C43.4704 36.5482 37.5506 42.4681 30.274 42.4681Z" fill="#23D997"/>
<path d="M36.4515 21.7133L31.6145 26.5502C31.21 26.3502 30.755 26.2372 30.274 26.2372C29.793 26.2372 29.3381 26.3502 28.9336 26.5502L26.7688 24.3854C26.3873 24.004 25.7692 24.004 25.3876 24.3854C25.0063 24.7667 25.0063 25.3851 25.3876 25.7665L27.5524 27.9312C27.3523 28.3357 27.2394 28.7907 27.2394 29.2717C27.2394 30.945 28.6006 32.3063 30.274 32.3063C31.9474 32.3063 33.3086 30.945 33.3086 29.2717C33.3086 28.7907 33.1956 28.3357 32.9956 27.9312L37.6906 23.2362L37.8325 23.0943C38.2139 22.713 38.2139 22.0946 37.8325 21.7133C37.4512 21.3319 36.833 21.3319 36.4515 21.7133ZM30.274 30.3532C29.6777 30.3532 29.1926 29.8681 29.1926 29.2718C29.1926 28.6755 29.6777 28.1903 30.274 28.1903C30.8703 28.1903 31.3555 28.6755 31.3555 29.2718C31.3555 29.8681 30.8703 30.3532 30.274 30.3532Z" fill="#23D997"/>
<path d="M40.7155 28.3071H39.8107C39.2714 28.3071 38.8341 28.7443 38.8341 29.2836C38.8341 29.823 39.2714 30.2602 39.8107 30.2602H40.7155C41.2547 30.2602 41.692 29.823 41.692 29.2836C41.692 28.7443 41.2547 28.3071 40.7155 28.3071Z" fill="#23D997"/>
<path d="M20.7372 28.2832H19.8325C19.2933 28.2832 18.856 28.7204 18.856 29.2598C18.856 29.7991 19.2933 30.2363 19.8325 30.2363H20.7372C21.2765 30.2363 21.7138 29.7991 21.7138 29.2598C21.7138 28.7204 21.2765 28.2832 20.7372 28.2832Z" fill="#23D997"/>
<path d="M30.2859 20.7115C30.8252 20.7115 31.2625 20.2743 31.2625 19.7349V18.8303C31.2625 18.2909 30.8252 17.8537 30.2859 17.8537C29.7467 17.8537 29.3093 18.2909 29.3093 18.8303V19.7349C29.3093 20.2743 29.7467 20.7115 30.2859 20.7115Z" fill="#23D997"/>
<path d="M30.2621 37.8319C29.7228 37.8319 29.2855 38.2691 29.2855 38.8085V39.7132C29.2855 40.2525 29.7228 40.6897 30.2621 40.6897C30.8013 40.6897 31.2386 40.2525 31.2386 39.7132V38.8085C31.2386 38.2691 30.8013 37.8319 30.2621 37.8319Z" fill="#23D997"/>
<path d="M0.976562 34.3208C0.719727 34.3208 0.467773 34.4253 0.286133 34.6069C0.104492 34.7886 0 35.0405 0 35.2974C0 35.5552 0.104395 35.8062 0.286133 35.9878C0.467871 36.1694 0.719727 36.2739 0.976562 36.2739C1.2334 36.2739 1.48535 36.1694 1.66689 35.9878C1.84854 35.8062 1.95312 35.5542 1.95312 35.2974C1.95312 35.0405 1.84863 34.7886 1.66689 34.6069C1.48535 34.4253 1.2334 34.3208 0.976562 34.3208Z" fill="#23D997"/>
</g>
<defs>
<clipPath id="clip0">
<rect width="50" height="50" fill="white"/>
</clipPath>
</defs>
</svg>
