<svg width="50" height="50" viewBox="0 0 50 50" fill="none" xmlns="http://www.w3.org/2000/svg">
<path d="M40.527 5.43286L27.4952 14.901L49.3307 30.7656C49.7676 28.9176 50 26.9915 50 25.0121C50 17.0893 46.2947 10.0165 40.527 5.43286Z" fill="#23D997"/>
<path d="M37.9867 3.65718C34.1994 1.34536 29.7525 0.0119629 25 0.0119629C19.8924 0.0119629 15.1385 1.55278 11.1763 4.19233L16.1563 19.5181L37.9867 3.65718Z" fill="#23D997"/>
<path d="M8.70518 6.06763C3.37842 10.6558 0 17.4465 0 25.012C0 27.3367 0.320117 29.5877 0.916504 31.7248H17.0424L8.70518 6.06763Z" fill="#23D997"/>
<path d="M1.93525 34.6545C5.58769 43.3584 14.0285 49.5738 23.9435 49.9881L28.9257 34.6545H1.93525Z" fill="#23D997"/>
<path d="M27.0434 49.928C36.8724 49.129 45.1109 42.6205 48.4298 33.7322L35.3851 24.2546L27.0434 49.928Z" fill="#23D997"/>
</svg>
