<svg width="50" height="50" viewBox="0 0 50 50" fill="none" xmlns="http://www.w3.org/2000/svg">
<path d="M49.9298 27.8306C49.9297 27.8303 49.9297 27.8302 49.9296 27.83L40.4894 4.12643C40.289 3.62279 39.7182 3.37692 39.2145 3.57728C39.2142 3.5774 39.2138 3.57752 39.2134 3.57777L0.915752 18.8275C0.759569 18.895 0.62412 19.0027 0.523147 19.1397C0.204646 19.3052 0.0034353 19.6327 0 19.9916V45.511C0 46.053 0.439473 46.4925 0.981513 46.4925H42.2051C42.7471 46.4925 43.1866 46.053 43.1866 45.511V31.5735L49.3819 29.1059C49.8854 28.9051 50.1307 28.3341 49.9298 27.8306ZM41.2236 44.5294H1.96303V20.9731H41.2236V44.5294ZM16.3765 19.015L32.811 12.4664C34.2778 14.0081 36.3101 14.8843 38.438 14.8927L40.0771 19.015H16.3765ZM43.1866 29.4652V19.9916C43.1866 19.4496 42.7471 19.0101 42.2051 19.0101H42.1894L40.1095 13.7865C40.0865 13.7429 40.0596 13.7015 40.0291 13.6628C39.9238 13.1901 39.486 12.8675 39.0034 12.907C37.0234 13.0875 35.0865 12.2535 33.8573 10.6908C33.5514 10.3133 33.0138 10.2194 32.598 10.4709C32.5514 10.4765 32.5051 10.485 32.4596 10.4965L12.3955 18.486C12.1527 18.5812 11.9585 18.77 11.8567 19.0101H5.76345L39.0289 5.76458L47.7438 27.6474L43.1866 29.4652Z" fill="#23D997"/>
<path d="M4.62686 37.9033C6.53246 38.4665 8.02363 39.9558 8.58923 41.8607C8.71326 42.2765 9.09569 42.5614 9.52951 42.5615C9.58043 42.5583 9.63098 42.5507 9.68067 42.5389C9.72471 42.5515 9.76974 42.5607 9.81514 42.5664H33.3715C33.4119 42.5611 33.4519 42.5529 33.4912 42.5419C33.9816 42.6611 34.4758 42.3604 34.5952 41.87C34.5955 41.8682 34.596 41.8665 34.5964 41.8646C35.1605 39.9578 36.6519 38.4664 38.5587 37.9023C39.0212 37.7609 39.3085 37.3001 39.2321 36.8226C39.2452 36.775 39.2546 36.7264 39.2605 36.6773V28.8252C39.2548 28.776 39.2449 28.7275 39.2311 28.68C39.308 28.2023 39.0205 27.7413 38.5578 27.6003C36.6509 27.0363 35.1599 25.5443 34.5974 23.637C34.4553 23.1714 33.9899 22.8833 33.5098 22.9636C33.4644 22.951 33.4182 22.9418 33.3715 22.9362H9.81514C9.76569 22.942 9.71674 22.9519 9.66889 22.9656C9.19151 22.8895 8.73093 23.1768 8.58923 23.6389C8.02473 25.5454 6.53345 27.0363 4.62686 27.6003C4.16444 27.7416 3.8771 28.2025 3.95354 28.68C3.94078 28.7277 3.93158 28.7762 3.92606 28.8252V36.6773C3.9317 36.7235 3.9409 36.7691 3.95354 36.8138C3.87305 37.2943 4.16101 37.7603 4.62686 37.9033ZM5.88908 29.2237C7.85996 28.4321 9.42204 26.8701 10.2136 24.8992H32.972C33.7639 26.8701 35.3264 28.4321 37.2975 29.2237V36.2788C35.3272 37.0713 33.7654 38.6331 32.973 40.6034H10.2136C9.42118 38.6331 7.85935 37.0713 5.88908 36.2788V29.2237Z" fill="#23D997"/>
<path d="M21.5933 38.6404C24.8458 38.6404 27.4824 36.0038 27.4824 32.7513C27.4824 29.4988 24.8458 26.8622 21.5933 26.8622C18.3408 26.8622 15.7042 29.4988 15.7042 32.7513C15.7074 36.0025 18.3422 38.6372 21.5933 38.6404ZM21.5933 28.8253C23.7616 28.8253 25.5194 30.583 25.5194 32.7513C25.5194 34.9196 23.7616 36.6774 21.5933 36.6774C19.425 36.6774 17.6672 34.9196 17.6672 32.7513C17.6672 30.583 19.425 28.8253 21.5933 28.8253Z" fill="#23D997"/>
<path d="M10.7966 34.2235C11.6097 34.2235 12.2689 33.5643 12.2689 32.7513C12.2689 31.9382 11.6097 31.279 10.7966 31.279C9.98358 31.279 9.32437 31.9382 9.32437 32.7513C9.32437 33.5644 9.98358 34.2235 10.7966 34.2235ZM10.7966 32.2605C11.0677 32.2605 11.2874 32.4802 11.2874 32.7513C11.2874 33.0223 11.0677 33.242 10.7966 33.242C10.5256 33.242 10.3059 33.0223 10.3059 32.7513C10.3059 32.4802 10.5256 32.2605 10.7966 32.2605Z" fill="#23D997"/>
<path d="M32.3899 34.2235C33.203 34.2235 33.8622 33.5643 33.8622 32.7513C33.8622 31.9382 33.203 31.279 32.3899 31.279C31.5769 31.279 30.9177 31.9382 30.9177 32.7513C30.9177 33.5644 31.5769 34.2235 32.3899 34.2235ZM32.3899 32.2605C32.661 32.2605 32.8807 32.4802 32.8807 32.7513C32.8807 33.0223 32.661 33.242 32.3899 33.242C32.1189 33.242 31.8992 33.0223 31.8992 32.7513C31.8992 32.4802 32.1189 32.2605 32.3899 32.2605Z" fill="#23D997"/>
</svg>
