<svg width="55" height="50" viewBox="0 0 55 50" fill="none" xmlns="http://www.w3.org/2000/svg">
<g clipPath="url(#clip0)">
<path d="M44.315 24.431C49.9172 19.8242 50.376 11.9355 45.3396 6.81113C40.7205 2.1112 32.989 1.31276 27.3406 4.95246C21.1832 0.97752 12.669 2.32109 8.32342 7.95328C4.33603 13.1213 5.20537 20.2008 10.3468 24.4309C3.95844 27.5113 -0.0287222 33.5842 0.000217514 40.1897V45.5469C0.000217514 46.5331 0.874244 47.3326 1.95245 47.3326H52.7094C53.7876 47.3326 54.6617 46.5331 54.6617 45.5469V40.1897C54.6905 33.5842 50.7033 27.5113 44.315 24.431ZM35.1396 6.26139C40.5228 6.25595 44.8917 10.2433 44.8978 15.1675C44.902 18.6793 42.6523 21.8663 39.1513 23.3077C39.001 23.3702 38.8507 23.4273 38.6985 23.4863C38.2167 23.6641 37.7198 23.8055 37.2128 23.9095C37.1153 23.9292 37.0176 23.9399 36.9181 23.9578C36.3516 24.0571 35.7768 24.1102 35.2001 24.1167C34.9404 24.1167 34.6788 24.0988 34.4192 24.0775C34.3216 24.0775 34.2239 24.0775 34.1264 24.0596C33.0168 23.9401 31.9375 23.6491 30.9345 23.1989C30.8975 23.1828 30.8544 23.1845 30.8174 23.1703C30.6221 23.0846 30.427 23.0096 30.2532 22.9131C30.2689 22.8952 30.2786 22.8757 30.2942 22.8578C31.1894 21.8056 31.8951 20.6296 32.3849 19.3739L32.4454 19.2238C32.6682 18.6241 32.8411 18.0099 32.9628 17.3863C32.9804 17.2953 32.994 17.2077 33.0097 17.1096C33.1226 16.4748 33.182 15.8331 33.1874 15.1899C33.1817 14.548 33.1224 13.9074 33.0097 13.2738C32.994 13.181 32.9804 13.0952 32.9628 12.997C32.8411 12.3735 32.6682 11.7592 32.4454 11.1595L32.3849 11.0095C31.8951 9.75378 31.1893 8.57772 30.2942 7.52555C30.2785 7.50766 30.2688 7.48809 30.2532 7.4702C31.7364 6.67877 33.4225 6.2615 35.1396 6.26139ZM9.76115 15.19C9.74731 10.2717 14.0948 6.27437 19.4716 6.26171C21.992 6.25575 24.4168 7.14417 26.2358 8.74C26.349 8.84003 26.4603 8.93995 26.5695 9.04354C26.9048 9.36486 27.214 9.70805 27.4949 10.0703C27.5808 10.181 27.6589 10.2989 27.7389 10.4132C28.0117 10.7973 28.2512 11.2003 28.4553 11.6185C28.5041 11.7203 28.5412 11.8239 28.5841 11.9256C28.7899 12.3882 28.9519 12.8661 29.0683 13.3541C29.082 13.4077 29.0859 13.4613 29.0976 13.5166C29.3449 14.6254 29.3449 15.7685 29.0976 16.8773C29.0859 16.9326 29.0819 16.9862 29.0683 17.0398C28.952 17.5278 28.79 18.0057 28.5841 18.4683C28.5412 18.5701 28.504 18.6737 28.4553 18.7754C28.251 19.193 28.0115 19.5954 27.7389 19.979C27.6588 20.0932 27.5808 20.2111 27.4949 20.3218C27.2141 20.6842 26.9048 21.0273 26.5695 21.3486C26.4602 21.4522 26.3489 21.5522 26.2358 21.6521C25.4453 22.3411 24.534 22.9037 23.5398 23.3164C23.3817 23.3824 23.2216 23.4432 23.0596 23.495C22.589 23.6659 22.1048 23.8031 21.6111 23.9057C21.4881 23.9307 21.3612 23.9449 21.2363 23.9646C20.7062 24.0549 20.1687 24.1044 19.6296 24.1128H19.4149C18.8758 24.1045 18.3383 24.0549 17.8082 23.9646C17.6833 23.9449 17.5563 23.9307 17.4334 23.9057C16.9397 23.8031 16.4554 23.6659 15.9849 23.495C15.8228 23.4361 15.6628 23.3754 15.5047 23.3164C12.012 21.8739 9.76561 18.6952 9.76115 15.19ZM35.1396 43.7612H3.90457V40.1898C3.87597 34.1387 8.04398 28.7361 14.2863 26.7328C17.6373 28.009 21.4067 28.009 24.7579 26.7328C25.4097 26.9506 26.0448 27.2077 26.6593 27.5025C27.0654 27.6935 27.4402 27.9114 27.8306 28.131C28.0845 28.2756 28.3421 28.4167 28.5862 28.5757C28.963 28.8203 29.3182 29.0864 29.6677 29.3596C29.8922 29.5382 30.1147 29.7167 30.3255 29.8953C30.6476 30.1738 30.9502 30.4685 31.2411 30.7703C31.4499 30.9882 31.653 31.2096 31.8463 31.4382C32.1021 31.7381 32.346 32.0453 32.5725 32.3613C32.7678 32.6292 32.9415 32.9077 33.1132 33.1863C33.3085 33.4934 33.4881 33.8006 33.652 34.1203C33.816 34.4399 33.9605 34.7899 34.101 35.131C34.2239 35.4274 34.3548 35.7221 34.4562 36.0238C34.5929 36.4381 34.6886 36.8666 34.7842 37.2952C34.8428 37.5487 34.9189 37.797 34.9618 38.0541C35.0775 38.7611 35.1368 39.4749 35.1395 40.1898V43.7612H35.1396ZM50.7572 43.7612H39.044V40.1898C39.044 39.6309 39.0089 39.0773 38.9543 38.5291C38.9386 38.3684 38.9114 38.2095 38.8918 38.0488C38.8391 37.6541 38.7786 37.2631 38.6965 36.8755C38.6614 36.7101 38.6244 36.544 38.5852 36.3773C38.4916 35.9797 38.3829 35.5856 38.2592 35.1952C38.2183 35.0666 38.1811 34.9362 38.1382 34.8095C37.5916 33.211 36.7994 31.6918 35.7859 30.2971L35.7097 30.1953C35.374 29.7393 35.0154 29.2983 34.634 28.8721L34.6204 28.856C34.23 28.4132 33.8063 27.9827 33.3612 27.5756C33.3866 27.5756 33.414 27.5756 33.4413 27.5756C33.9922 27.6418 34.5469 27.6776 35.1026 27.6827H35.21C35.7243 27.6787 36.2378 27.6482 36.7484 27.5917C36.9085 27.5738 37.0667 27.547 37.2267 27.5238C37.6419 27.4655 38.0519 27.3899 38.4566 27.2971C38.5717 27.2703 38.6889 27.2453 38.806 27.2149C39.3371 27.0828 39.8587 26.9205 40.3677 26.7292C46.6146 28.7305 50.7864 34.1356 50.7573 40.1899V43.7612H50.7572Z" fill="#23D997"/>
</g>
<defs>
<clipPath id="clip0">
<rect width="54.6617" height="50" fill="white"/>
</clipPath>
</defs>
</svg>
